<svg xmlns="http://www.w3.org/2000/svg" width="18" height="18"><path style="stroke:none;fill-rule:nonzero;fill:#000;fill-opacity:1" d="M9 0C4.031 0 0 4.031 0 9a8.997 8.997 0 0 0 6.156 8.54c.45.085.594-.196.594-.43v-1.676c-2.504.543-3.023-1.063-3.023-1.063-.41-1.043-1-1.316-1-1.316-.817-.559.062-.547.062-.547.902.062 1.379.926 1.379.926.8 1.375 2.105.976 2.617.75.082-.582.313-.98.574-1.204-2-.23-4.101-1.003-4.101-4.449 0-.984.351-1.785.926-2.418-.094-.226-.403-1.14.09-2.379 0 0 .753-.242 2.472.922.719-.199 1.488-.3 2.254-.304a8.666 8.666 0 0 1 2.254.304c1.719-1.164 2.473-.922 2.473-.922.492 1.239.183 2.153.09 2.38.578.632.925 1.433.925 2.417 0 3.457-2.105 4.219-4.11 4.442.325.277.618.824.618 1.664v2.472c0 .239.145.52.602.43A8.999 8.999 0 0 0 18 9c0-4.969-4.031-9-9-9zm0 0"/></svg>