<svg xmlns="http://www.w3.org/2000/svg" width="18" height="18"><path style="stroke:none;fill-rule:evenodd;fill-opacity:1" d="M14.324 7.977c-2.902-1.723-7.687-1.88-10.457-1.04A.837.837 0 0 1 2.82 6.38a.838.838 0 0 1 .559-1.05c3.18-.966 8.465-.782 11.805 1.202a.84.84 0 0 1-.86 1.446zm-.094 2.554a.704.704 0 0 1-.964.23c-2.422-1.488-6.11-1.917-8.97-1.05a.698.698 0 0 1-.874-.465.7.7 0 0 1 .465-.875c3.27-.992 7.332-.512 10.11 1.195a.704.704 0 0 1 .233.965zm-1.101 2.45a.564.564 0 0 1-.774.187c-2.113-1.293-4.773-1.582-7.906-.867a.565.565 0 0 1-.672-.422.565.565 0 0 1 .422-.672c3.43-.785 6.371-.445 8.742 1.004a.56.56 0 0 1 .188.77zM9 0a9 9 0 1 0 0 18c4.973 0 9-4.027 9-9a9 9 0 0 0-9-9zm0 0"/></svg>