<svg width="151" height="54" fill="none" xmlns="http://www.w3.org/2000/svg"><path d="M149.124 37.47c-4.275 2.689-10.13 5.703-13.011 6.676-4.553 1.53-7.016.696-11.198-3.663-2.602-2.735-3.021-3.014-4.786-3.014-1.023 0-3.114.557-4.554 1.206l-2.695 1.16-1.952-1.021-1.905-1.02-4.647 1.252c-6.552 1.715-7.481 1.623-10.548-.928-.743-.602-1.533-1.112-1.766-1.112-.279 0-1.951 1.39-3.717 3.106-3.392 3.292-4.136 3.756-5.948 3.802l-1.069.047.325-6.399c.28-5.564.233-6.492-.418-7.002-1.254-1.02-1.998-.278-4.414 4.498-3.02 5.796-6.738 9.97-8.69 9.737l-1.347-.139.046-3.477c.093-2.829.419-4.313 1.813-7.883.929-2.411 2.137-5.75 2.648-7.419.511-1.67 1.07-3.153 1.209-3.292.557-.556 7.388-.835 24.488-1.113 16.073-.241 29.632-.482 41.082-.733a177.182 177.182 0 0 1 5.404-2.703c-5.888.148-14.373.334-23.485.515-16.217.278-30.436.556-31.598.603-2.23.092-12.639.278-14.126.278-1.022-.046-.93-1.113.883-7.465a211.787 211.787 0 0 0 1.58-5.797c.186-.788.604-1.854.883-2.41.743-1.345.697-2.922-.047-2.922-.371 0-.882.556-1.208 1.252-1.208 2.643-4.646 11.639-5.111 13.447-1.022 3.802-1.069 3.802-10.734 4.127-5.53.139-8.829.092-9.294-.232-.557-.371-.418-1.02 1.023-4.08 2.602-5.518 5.483-12.15 5.483-12.66 0-.277-.186-.463-.372-.463-1.022 0-2.044 1.53-3.624 5.332-2.556 6.26-5.158 11.268-6.18 11.825-1.07.556-7.435.602-8.272.092-.325-.185-.93-2.04-1.347-4.034-1.255-6.12-3.253-10.85-5.39-12.89C30.4.606 29.75.467 27.611 1.765c-2.695 1.67-6.366 8.44-8.504 15.766-.325 1.159-.79 2.225-1.068 2.41-.233.14-3.485.186-7.203.047-5.158-.139-7.249-.046-8.596.464-3.857 1.345-2.602 1.716 6.087 1.716 4.554 0 8.503.185 8.829.37.418.232.372 1.113-.14 3.57-1.672 8.023-2.37 15.07-1.3 14.05.092-.138.65-2.41 1.114-5.053 1.534-7.93 2.463-11.222 3.346-12.103.744-.742 1.72-.834 8.736-.834 9.015 0 8.085-.51 8.55 4.868.14 1.53.372 3.942.511 5.333.233 2.364.186 2.69-1.254 4.405-2.788 3.431-10.874 11.128-13.801 13.122-3.16 2.133-5.297 2.55-6.041 1.113-.325-.65-1.44-7.373-1.44-8.81 0-.093-.186 0-.465.139-.232.14-.465 1.855-.465 3.756 0 3.385.79 5.935 2.045 6.77.93.649 3.531.37 5.343-.51 2.788-1.438 8.83-6.492 13.476-11.314 3.346-3.478 3.81-3.478 4.46.046.744 3.849 3.858 7.836 7.436 9.367 2.927 1.298 7.11 1.715 8.643.927 2.462-1.345 5.39-3.849 6.459-5.61.65-.975 1.347-1.81 1.626-1.81.232 0 .79.696 1.162 1.485 1.068 2.225 1.905 2.55 4.135 1.53 2.695-1.206 5.019-3.895 7.667-8.95 1.255-2.318 2.463-4.265 2.649-4.265.558 0 .511 3.292-.093 6.77-.511 3.06-.093 4.915 1.44 5.888 1.534.928 4.322-.463 7.575-3.71 2.88-2.874 3.16-3.06 3.903-2.364 2.695 2.365 6.924 2.875 11.338 1.391 4.229-1.484 5.344-1.53 6.227-.556 1.115 1.205 2.369 1.159 6.087-.232 1.673-.65 3.485-1.16 3.996-1.16.511 0 2.138 1.206 3.578 2.69 2.974 3.014 6.041 4.73 8.457 4.73 3.16 0 8.968-2.272 14.916-5.89l1.427-.848c.483-.9.994-1.785 1.524-2.657.121-.245.255-.482.39-.718-.413-.088-.729.041-1.25.375zM36.301 19.57c-.093.093-3.67.324-7.946.464l-7.806.324v-1.066c.046-2.968 4.693-13.076 6.83-14.7 1.952-1.576 3.346-1.112 5.159 1.577.836 1.252 1.812 3.339 2.184 4.637.836 2.643 1.858 8.486 1.58 8.764zm3.207 6.77-.14-3.942 1.627-.324c1.626-.278 4.553-.14 4.972.278.278.232-1.07 2.55-3.764 6.584-2.138 3.246-2.463 2.922-2.695-2.596zm26.16 7.511c-2.137 8.95-7.62 15.673-12.731 15.673-2.695 0-6.087-1.298-7.621-2.875-3.346-3.524-5.483-9.923-4.182-12.658.836-1.809 7.156-10.758 7.853-11.175 1.44-.881 18.447-1.299 19.284-.464.14.14-.186 1.994-.743 4.08a431.882 431.882 0 0 0-1.86 7.42z" fill="#000"/></svg>